<svg width="34" height="34" viewBox="0 0 34 34" fill="none" xmlns="http://www.w3.org/2000/svg">
<g filter="url('#filter0_d_70_130')">
<path d="M16.4019 3.5031C16.4229 3.3953 16.5771 3.3953 16.5981 3.5031L18.3487 12.4764C18.3615 12.542 18.4338 12.5768 18.4931 12.5459L26.6002 8.31983C26.6976 8.26906 26.7938 8.38965 26.7226 8.4733L20.7985 15.4367C20.7551 15.4876 20.773 15.5659 20.8341 15.5929L29.1929 19.2964C29.2933 19.3409 29.259 19.4913 29.1492 19.4878L20.0113 19.1977C19.9445 19.1956 19.8945 19.2584 19.9114 19.323L22.2276 28.1672C22.2554 28.2735 22.1164 28.3404 22.0507 28.2524L16.5801 20.9273C16.5401 20.8737 16.4599 20.8737 16.4199 20.9273L10.9493 28.2524C10.8836 28.3404 10.7446 28.2735 10.7724 28.1672L13.0886 19.323C13.1055 19.2584 13.0555 19.1956 12.9887 19.1977L3.8508 19.4878C3.74102 19.4913 3.7067 19.3409 3.80712 19.2964L12.1659 15.5929C12.227 15.5659 12.2449 15.4876 12.2015 15.4367L6.27742 8.4733C6.20625 8.38965 6.30242 8.26906 6.39981 8.31983L14.5069 12.5459C14.5662 12.5768 14.6385 12.542 14.6513 12.4764L16.4019 3.5031Z" fill="url('#paint0_linear_70_130')"></path>
</g>
<defs>
<filter id="filter0_d_70_130" x="0.247467" y="0.422241" width="33.5051" height="32.8708" filterUnits="userSpaceOnUse" color-interpolation-filters="sRGB">
<feFlood flood-opacity="0" result="BackgroundImageFix"></feFlood>
<feColorMatrix in="SourceAlpha" type="matrix" values="0 0 0 0 0 0 0 0 0 0 0 0 0 0 0 0 0 0 127 0" result="hardAlpha"></feColorMatrix>
<feOffset dx="0.5" dy="1"></feOffset>
<feGaussianBlur stdDeviation="2"></feGaussianBlur>
<feComposite in2="hardAlpha" operator="out"></feComposite>
<feColorMatrix type="matrix" values="0 0 0 0 0 0 0 0 0 0 0 0 0 0 0 0 0 0 0.25 0"></feColorMatrix>
<feBlend mode="normal" in2="BackgroundImageFix" result="effect1_dropShadow_70_130"></feBlend>
<feBlend mode="normal" in="SourceGraphic" in2="effect1_dropShadow_70_130" result="shape"></feBlend>
</filter>
<linearGradient id="paint0_linear_70_130" x1="30" y1="16" x2="3" y2="16" gradientUnits="userSpaceOnUse">
<stop stop-color="#CE2476"></stop>
<stop offset="1" stop-color="#4A2E9B"></stop>
</linearGradient>
</defs>
</svg>
