<svg width="32" height="31" fill="none" xmlns="http://www.w3.org/2000/svg"><g filter="url('#filter0_d_4_139')"><path d="M14.629 3.546a1 1 0 0 1 1.742 0l3.19 5.658a1 1 0 0 0 .673.489l6.366 1.284a1 1 0 0 1 .538 1.657l-4.395 4.782a1 1 0 0 0-.257.791l.745 6.452a1 1 0 0 1-1.41 1.024l-5.905-2.703a1 1 0 0 0-.832 0l-5.906 2.703a1 1 0 0 1-1.41-1.024l.746-6.452a1 1 0 0 0-.257-.791l-4.396-4.782a1 1 0 0 1 .539-1.657l6.366-1.284a1 1 0 0 0 .674-.49l3.189-5.657Z" fill="#000"/><path d="M14.847 3.668a.75.75 0 0 1 1.306 0l3.19 5.658c.178.317.485.54.841.612l6.367 1.284a.75.75 0 0 1 .404 1.243l-4.396 4.782a1.25 1.25 0 0 0-.322.99l.746 6.451a.75.75 0 0 1-1.057.768l-5.906-2.703a1.25 1.25 0 0 0-1.04 0l-5.906 2.703a.75.75 0 0 1-1.057-.768l.746-6.452a1.25 1.25 0 0 0-.322-.99l-4.395-4.78a.75.75 0 0 1 .403-1.244l6.367-1.284a1.25 1.25 0 0 0 .842-.612l3.189-5.658Z" stroke="#fff" stroke-width=".5"/></g><defs><filter id="filter0_d_4_139" x=".097" y=".037" width="31.807" height="30.739" filterUnits="userSpaceOnUse" color-interpolation-filters="sRGB"><feFlood flood-opacity="0" result="BackgroundImageFix"/><feColorMatrix in="SourceAlpha" values="0 0 0 0 0 0 0 0 0 0 0 0 0 0 0 0 0 0 127 0" result="hardAlpha"/><feOffset dx=".5" dy="1"/><feGaussianBlur stdDeviation="2"/><feComposite in2="hardAlpha" operator="out"/><feColorMatrix values="0 0 0 0 0 0 0 0 0 0 0 0 0 0 0 0 0 0 0.25 0"/><feBlend in2="BackgroundImageFix" result="effect1_dropShadow_4_139"/><feBlend in="SourceGraphic" in2="effect1_dropShadow_4_139" result="shape"/></filter></defs></svg>