<svg width="32" height="31" viewBox="0 0 32 31" fill="none" xmlns="http://www.w3.org/2000/svg">
<g filter="url(#filter0_d_4_273)">
<path d="M14.6288 3.54558C15.0114 2.86693 15.9886 2.86693 16.3712 3.54557L19.5602 9.20356C19.7029 9.45674 19.9487 9.63531 20.2336 9.69279L26.6001 10.9774C27.3638 11.1314 27.6658 12.0609 27.1385 12.6344L22.7429 17.4158C22.5463 17.6298 22.4524 17.9187 22.4857 18.2074L23.2314 24.6593C23.3208 25.4332 22.5302 26.0076 21.8219 25.6834L15.9162 22.9805C15.6519 22.8595 15.3481 22.8595 15.0838 22.9805L9.17814 25.6834C8.46978 26.0076 7.67915 25.4332 7.76859 24.6593L8.51425 18.2074C8.54762 17.9187 8.45374 17.6297 8.25705 17.4158L3.86147 12.6344C3.33424 12.0609 3.63623 11.1314 4.39987 10.9774L10.7664 9.69279C11.0513 9.63531 11.2971 9.45674 11.4398 9.20356L14.6288 3.54558Z" fill="#FFF7B4"/>
<path d="M15.0644 3.79108C15.2557 3.45176 15.7443 3.45176 15.9356 3.79108L19.1247 9.44907C19.3387 9.82883 19.7074 10.0967 20.1347 10.1829L26.5012 11.4675C26.8831 11.5445 27.0341 12.0092 26.7704 12.296L22.3749 17.0774C22.0798 17.3983 21.939 17.8317 21.9891 18.2648L22.7347 24.7167C22.7794 25.1036 22.3841 25.3908 22.0299 25.2287L16.1242 22.5258C15.7279 22.3444 15.2721 22.3444 14.8758 22.5258L8.97006 25.2287C8.61588 25.3908 8.22056 25.1036 8.26528 24.7167L9.01095 18.2648C9.061 17.8317 8.92017 17.3983 8.62514 17.0774L4.22956 12.296C3.96594 12.0092 4.11694 11.5445 4.49876 11.4675L10.8653 10.1829C11.2926 10.0967 11.6613 9.82883 11.8753 9.44907L15.0644 3.79108Z" stroke="#FFF7B4"/>
</g>
<defs>
<filter id="filter0_d_4_273" x="0.0966797" y="0.0366211" width="31.8066" height="30.7391" filterUnits="userSpaceOnUse" color-interpolation-filters="sRGB">
<feFlood flood-opacity="0" result="BackgroundImageFix"/>
<feColorMatrix in="SourceAlpha" type="matrix" values="0 0 0 0 0 0 0 0 0 0 0 0 0 0 0 0 0 0 127 0" result="hardAlpha"/>
<feOffset dx="0.5" dy="1"/>
<feGaussianBlur stdDeviation="2"/>
<feComposite in2="hardAlpha" operator="out"/>
<feColorMatrix type="matrix" values="0 0 0 0 0 0 0 0 0 0 0 0 0 0 0 0 0 0 0.25 0"/>
<feBlend mode="normal" in2="BackgroundImageFix" result="effect1_dropShadow_4_273"/>
<feBlend mode="normal" in="SourceGraphic" in2="effect1_dropShadow_4_273" result="shape"/>
</filter>
</defs>
</svg>
