<svg width="32" height="31" fill="none" xmlns="http://www.w3.org/2000/svg"><g filter="url('#filter0_d_4_273')"><path d="M14.629 3.546a1 1 0 0 1 1.742 0l3.19 5.658a1 1 0 0 0 .673.489l6.366 1.284a1 1 0 0 1 .538 1.657l-4.395 4.782a1 1 0 0 0-.257.791l.745 6.452a1 1 0 0 1-1.41 1.024l-5.905-2.703a1 1 0 0 0-.832 0l-5.906 2.703a1 1 0 0 1-1.41-1.024l.746-6.452a1 1 0 0 0-.257-.791l-4.396-4.782a1 1 0 0 1 .539-1.657l6.366-1.284a1 1 0 0 0 .674-.49l3.189-5.657Z" fill="#FFF7B4"/><path d="M15.064 3.791a.5.5 0 0 1 .872 0l3.189 5.658a1.5 1.5 0 0 0 1.01.734l6.366 1.284a.5.5 0 0 1 .27.829l-4.396 4.781a1.5 1.5 0 0 0-.386 1.188l.746 6.452a.5.5 0 0 1-.705.512l-5.906-2.703a1.5 1.5 0 0 0-1.248 0L8.97 25.229a.5.5 0 0 1-.705-.512l.746-6.452a1.5 1.5 0 0 0-.386-1.188L4.23 12.296a.5.5 0 0 1 .269-.829l6.366-1.284a1.5 1.5 0 0 0 1.01-.734l3.19-5.658Z" stroke="#FFF7B4"/></g><defs><filter id="filter0_d_4_273" x=".097" y=".037" width="31.807" height="30.739" filterUnits="userSpaceOnUse" color-interpolation-filters="sRGB"><feFlood flood-opacity="0" result="BackgroundImageFix"/><feColorMatrix in="SourceAlpha" values="0 0 0 0 0 0 0 0 0 0 0 0 0 0 0 0 0 0 127 0" result="hardAlpha"/><feOffset dx=".5" dy="1"/><feGaussianBlur stdDeviation="2"/><feComposite in2="hardAlpha" operator="out"/><feColorMatrix values="0 0 0 0 0 0 0 0 0 0 0 0 0 0 0 0 0 0 0.25 0"/><feBlend in2="BackgroundImageFix" result="effect1_dropShadow_4_273"/><feBlend in="SourceGraphic" in2="effect1_dropShadow_4_273" result="shape"/></filter></defs></svg>