<svg width="32" height="31" viewBox="0 0 32 31" fill="none" xmlns="http://www.w3.org/2000/svg">
<g filter="url(#filter0_d_4_139)">
<path d="M14.6288 3.54558C15.0114 2.86693 15.9886 2.86693 16.3712 3.54557L19.5602 9.20356C19.7029 9.45674 19.9487 9.63531 20.2336 9.69279L26.6001 10.9774C27.3638 11.1314 27.6658 12.0609 27.1385 12.6344L22.7429 17.4158C22.5463 17.6298 22.4524 17.9187 22.4857 18.2074L23.2314 24.6593C23.3208 25.4332 22.5302 26.0076 21.8219 25.6834L15.9162 22.9805C15.6519 22.8595 15.3481 22.8595 15.0838 22.9805L9.17814 25.6834C8.46978 26.0076 7.67915 25.4332 7.76859 24.6593L8.51425 18.2074C8.54762 17.9187 8.45374 17.6297 8.25705 17.4158L3.86147 12.6344C3.33424 12.0609 3.63623 11.1314 4.39987 10.9774L10.7664 9.69279C11.0513 9.63531 11.2971 9.45674 11.4398 9.20356L14.6288 3.54558Z" fill="black"/>
<path d="M14.8466 3.66833C15.1335 3.15935 15.8665 3.15935 16.1534 3.66833L19.3424 9.32631C19.5208 9.64278 19.828 9.866 20.1841 9.93785L26.5507 11.2224C27.1234 11.338 27.3499 12.0351 26.9545 12.4652L22.5589 17.2466C22.313 17.514 22.1957 17.8752 22.2374 18.2361L22.9831 24.688C23.0501 25.2684 22.4572 25.6992 21.9259 25.4561L16.0202 22.7531C15.6899 22.602 15.3101 22.602 14.9798 22.7531L9.0741 25.4561C8.54283 25.6992 7.94986 25.2684 8.01694 24.688L8.7626 18.2361C8.80431 17.8752 8.68696 17.514 8.4411 17.2466L4.04551 12.4652C3.65009 12.0351 3.87659 11.338 4.44931 11.2224L10.8159 9.93785C11.172 9.866 11.4792 9.64278 11.6576 9.32631L14.8466 3.66833Z" stroke="white" stroke-width="0.5"/>
</g>
<defs>
<filter id="filter0_d_4_139" x="0.0966797" y="0.0365906" width="31.8066" height="30.7391" filterUnits="userSpaceOnUse" color-interpolation-filters="sRGB">
<feFlood flood-opacity="0" result="BackgroundImageFix"/>
<feColorMatrix in="SourceAlpha" type="matrix" values="0 0 0 0 0 0 0 0 0 0 0 0 0 0 0 0 0 0 127 0" result="hardAlpha"/>
<feOffset dx="0.5" dy="1"/>
<feGaussianBlur stdDeviation="2"/>
<feComposite in2="hardAlpha" operator="out"/>
<feColorMatrix type="matrix" values="0 0 0 0 0 0 0 0 0 0 0 0 0 0 0 0 0 0 0.25 0"/>
<feBlend mode="normal" in2="BackgroundImageFix" result="effect1_dropShadow_4_139"/>
<feBlend mode="normal" in="SourceGraphic" in2="effect1_dropShadow_4_139" result="shape"/>
</filter>
</defs>
</svg>
